<?xml version="1.0" encoding="UTF-8" standalone="no"?>
<!DOCTYPE svg PUBLIC "-//W3C//DTD SVG 1.1//EN"
 "http://www.w3.org/Graphics/SVG/1.1/DTD/svg11.dtd">
<!-- Generated by graphviz version 2.43.0 (0)
 -->
<!-- Title: IATI Engine Pages: 1 -->
<svg width="794pt" height="290pt"
 viewBox="0.00 0.00 793.50 290.00" xmlns="http://www.w3.org/2000/svg" xmlns:xlink="http://www.w3.org/1999/xlink">
<g id="graph0" class="graph" transform="scale(1 1) rotate(0) translate(4 286)">
<title>IATI Engine</title>
<polygon fill="white" stroke="transparent" points="-4,4 -4,-286 789.5,-286 789.5,4 -4,4"/>
<!-- collect&#45;iati&#45;files -->
<g id="node1" class="node">
<title>collect&#45;iati&#45;files</title>
<polygon fill="#1168bd" stroke="#1168bd" points="651,-118 551,-118 551,-82 651,-82 651,-118"/>
<text text-anchor="middle" x="601" y="-97.2" font-family="sans-serif" font-size="11.00" fill="white">collect&#45;iati&#45;files</text>
</g>
<!-- validate&#45;iati -->
<!-- Validate generated IATI file using Saxon EE and generate source&#45;highlighted HTML page and errors page. -->
<g id="node2" class="node">
<title>validate&#45;iati</title>
<polygon fill="#08427b" stroke="#08427b" points="82,-118 0,-118 0,-82 82,-82 82,-118"/>
<text text-anchor="middle" x="41" y="-97.2" font-family="sans-serif" font-size="11.00" fill="white">validate&#45;iati</text>
</g>
<!-- create&#45;iati&#45;output -->
<!-- Merge IATI partial activities, validate, create clean output -->
<g id="node3" class="node">
<title>create&#45;iati&#45;output</title>
<polygon fill="#08427b" stroke="#08427b" points="244.5,-200 131.5,-200 131.5,-164 244.5,-164 244.5,-200"/>
<text text-anchor="middle" x="188" y="-179.2" font-family="sans-serif" font-size="11.00" fill="white">create&#45;iati&#45;output</text>
</g>
<!-- create&#45;iati&#45;output&#45;&gt;validate&#45;iati -->
<g id="edge2" class="edge">
<title>create&#45;iati&#45;output&#45;&gt;validate&#45;iati</title>
<path fill="none" stroke="#e91e63" d="M156.46,-163.84C133.12,-151.13 101.27,-133.8 76.94,-120.56"/>
<polygon fill="#e91e63" stroke="#e91e63" points="77.71,-118.99 72.48,-118.13 76.04,-122.06 77.71,-118.99"/>
<text text-anchor="middle" x="127.5" y="-138.8" font-family="sans-serif" font-size="9.00" fill="#e91e63">2</text>
</g>
<!-- merge&#45;iati -->
<g id="node4" class="node">
<title>merge&#45;iati</title>
<polygon fill="#1168bd" stroke="#1168bd" points="173.5,-118 100.5,-118 100.5,-82 173.5,-82 173.5,-118"/>
<text text-anchor="middle" x="137" y="-97.2" font-family="sans-serif" font-size="11.00" fill="white">merge&#45;iati</text>
</g>
<!-- create&#45;iati&#45;output&#45;&gt;merge&#45;iati -->
<g id="edge1" class="edge">
<title>create&#45;iati&#45;output&#45;&gt;merge&#45;iati</title>
<path fill="none" stroke="#e91e63" d="M176.93,-163.64C169.2,-151.5 158.81,-135.22 150.57,-122.29"/>
<polygon fill="#e91e63" stroke="#e91e63" points="152.03,-121.33 147.87,-118.05 149.08,-123.21 152.03,-121.33"/>
<text text-anchor="middle" x="169.5" y="-138.8" font-family="sans-serif" font-size="9.00" fill="#e91e63">1</text>
</g>
<!-- filter&#45;activities -->
<!-- Split the src file into valid and invalid activities -->
<g id="node5" class="node">
<title>filter&#45;activities</title>
<polygon fill="#08427b" stroke="#08427b" points="286.5,-118 191.5,-118 191.5,-82 286.5,-82 286.5,-118"/>
<text text-anchor="middle" x="239" y="-97.2" font-family="sans-serif" font-size="11.00" fill="white">filter&#45;activities</text>
</g>
<!-- create&#45;iati&#45;output&#45;&gt;filter&#45;activities -->
<g id="edge3" class="edge">
<title>create&#45;iati&#45;output&#45;&gt;filter&#45;activities</title>
<path fill="none" stroke="#e91e63" d="M199.07,-163.64C206.8,-151.5 217.19,-135.22 225.43,-122.29"/>
<polygon fill="#e91e63" stroke="#e91e63" points="226.92,-123.21 228.13,-118.05 223.97,-121.33 226.92,-123.21"/>
<text text-anchor="middle" x="220.5" y="-138.8" font-family="sans-serif" font-size="9.00" fill="#e91e63">3</text>
</g>
<!-- ls&#45;tmp -->
<g id="node10" class="node">
<title>ls&#45;tmp</title>
<polygon fill="#1168bd" stroke="#1168bd" points="164,-36 110,-36 110,0 164,0 164,-36"/>
<text text-anchor="middle" x="137" y="-15.2" font-family="sans-serif" font-size="11.00" fill="white">ls&#45;tmp</text>
</g>
<!-- merge&#45;iati&#45;&gt;ls&#45;tmp -->
<g id="edge7" class="edge">
<title>merge&#45;iati&#45;&gt;ls&#45;tmp</title>
<path fill="none" stroke="#e91e63" d="M137,-81.64C137,-69.82 137,-54.06 137,-41.31"/>
<polygon fill="#e91e63" stroke="#e91e63" points="138.75,-41.05 137,-36.05 135.25,-41.05 138.75,-41.05"/>
</g>
<!-- generate&#45;iati&#45;partials -->
<!-- Generate IATI partial activities for input files -->
<g id="node6" class="node">
<title>generate&#45;iati&#45;partials</title>
<polygon fill="#08427b" stroke="#08427b" points="473,-200 341,-200 341,-164 473,-164 473,-200"/>
<text text-anchor="middle" x="407" y="-179.2" font-family="sans-serif" font-size="11.00" fill="white">generate&#45;iati&#45;partials</text>
</g>
<!-- csvxml&#45;s2i -->
<g id="node7" class="node">
<title>csvxml&#45;s2i</title>
<polygon fill="#1168bd" stroke="#1168bd" points="379.5,-118 304.5,-118 304.5,-82 379.5,-82 379.5,-118"/>
<text text-anchor="middle" x="342" y="-97.2" font-family="sans-serif" font-size="11.00" fill="white">csvxml&#45;s2i</text>
</g>
<!-- generate&#45;iati&#45;partials&#45;&gt;csvxml&#45;s2i -->
<g id="edge4" class="edge">
<title>generate&#45;iati&#45;partials&#45;&gt;csvxml&#45;s2i</title>
<path fill="none" stroke="#e91e63" d="M392.9,-163.64C382.95,-151.4 369.57,-134.93 359.03,-121.96"/>
<polygon fill="#e91e63" stroke="#e91e63" points="360.36,-120.83 355.85,-118.05 357.65,-123.03 360.36,-120.83"/>
<text text-anchor="middle" x="382.5" y="-138.8" font-family="sans-serif" font-size="9.00" fill="#e91e63">1</text>
</g>
<!-- iati&#45;s2i -->
<g id="node8" class="node">
<title>iati&#45;s2i</title>
<polygon fill="#1168bd" stroke="#1168bd" points="452,-118 398,-118 398,-82 452,-82 452,-118"/>
<text text-anchor="middle" x="425" y="-97.2" font-family="sans-serif" font-size="11.00" fill="white">iati&#45;s2i</text>
</g>
<!-- generate&#45;iati&#45;partials&#45;&gt;iati&#45;s2i -->
<g id="edge5" class="edge">
<title>generate&#45;iati&#45;partials&#45;&gt;iati&#45;s2i</title>
<path fill="none" stroke="#e91e63" d="M410.91,-163.64C413.59,-151.71 417.17,-135.78 420.06,-122.97"/>
<polygon fill="#e91e63" stroke="#e91e63" points="421.77,-123.31 421.16,-118.05 418.36,-122.54 421.77,-123.31"/>
<text text-anchor="middle" x="421.5" y="-138.8" font-family="sans-serif" font-size="9.00" fill="#e91e63">2</text>
</g>
<!-- akvo&#45;s2i -->
<g id="node9" class="node">
<title>akvo&#45;s2i</title>
<polygon fill="#1168bd" stroke="#1168bd" points="532,-118 470,-118 470,-82 532,-82 532,-118"/>
<text text-anchor="middle" x="501" y="-97.2" font-family="sans-serif" font-size="11.00" fill="white">akvo&#45;s2i</text>
</g>
<!-- generate&#45;iati&#45;partials&#45;&gt;akvo&#45;s2i -->
<g id="edge6" class="edge">
<title>generate&#45;iati&#45;partials&#45;&gt;akvo&#45;s2i</title>
<path fill="none" stroke="#e91e63" d="M427.4,-163.64C441.91,-151.29 461.46,-134.65 476.77,-121.62"/>
<polygon fill="#e91e63" stroke="#e91e63" points="478.29,-122.62 480.97,-118.05 476.02,-119.96 478.29,-122.62"/>
<text text-anchor="middle" x="463.5" y="-138.8" font-family="sans-serif" font-size="9.00" fill="#e91e63">3</text>
</g>
<!-- sheets&#45;csvxml -->
<g id="node11" class="node">
<title>sheets&#45;csvxml</title>
<polygon fill="#1168bd" stroke="#1168bd" points="765,-118 669,-118 669,-82 765,-82 765,-118"/>
<text text-anchor="middle" x="717" y="-97.2" font-family="sans-serif" font-size="11.00" fill="white">sheets&#45;csvxml</text>
</g>
<!-- excel&#45;csv -->
<g id="node12" class="node">
<title>excel&#45;csv</title>
<polygon fill="#1168bd" stroke="#1168bd" points="710,-36 642,-36 642,0 710,0 710,-36"/>
<text text-anchor="middle" x="676" y="-15.2" font-family="sans-serif" font-size="11.00" fill="white">excel&#45;csv</text>
</g>
<!-- sheets&#45;csvxml&#45;&gt;excel&#45;csv -->
<g id="edge8" class="edge">
<title>sheets&#45;csvxml&#45;&gt;excel&#45;csv</title>
<path fill="none" stroke="#e91e63" d="M708.1,-81.64C701.94,-69.61 693.68,-53.5 687.09,-40.63"/>
<polygon fill="#e91e63" stroke="#e91e63" points="688.58,-39.7 684.74,-36.05 685.46,-41.3 688.58,-39.7"/>
<text text-anchor="middle" x="701.5" y="-56.8" font-family="sans-serif" font-size="9.00" fill="#e91e63">1</text>
</g>
<!-- csv&#45;csv -->
<g id="node13" class="node">
<title>csv&#45;csv</title>
<polygon fill="#1168bd" stroke="#1168bd" points="785.5,-36 728.5,-36 728.5,0 785.5,0 785.5,-36"/>
<text text-anchor="middle" x="757" y="-15.2" font-family="sans-serif" font-size="11.00" fill="white">csv&#45;csv</text>
</g>
<!-- sheets&#45;csvxml&#45;&gt;csv&#45;csv -->
<g id="edge9" class="edge">
<title>sheets&#45;csvxml&#45;&gt;csv&#45;csv</title>
<path fill="none" stroke="#e91e63" d="M725.68,-81.64C731.7,-69.61 739.75,-53.5 746.18,-40.63"/>
<polygon fill="#e91e63" stroke="#e91e63" points="747.8,-41.3 748.47,-36.05 744.67,-39.74 747.8,-41.3"/>
<text text-anchor="middle" x="742.5" y="-56.8" font-family="sans-serif" font-size="9.00" fill="#e91e63">2</text>
</g>
<!-- init -->
<g id="node14" class="node">
<title>init</title>
<polygon fill="#1168bd" stroke="#1168bd" points="545,-200 491,-200 491,-164 545,-164 545,-200"/>
<text text-anchor="middle" x="518" y="-179.2" font-family="sans-serif" font-size="11.00" fill="white">init</text>
</g>
<!-- gather&#45;input&#45;files -->
<!-- Gather input files into tmp in expected formats -->
<g id="node15" class="node">
<title>gather&#45;input&#45;files</title>
<polygon fill="#08427b" stroke="#08427b" points="673,-200 563,-200 563,-164 673,-164 673,-200"/>
<text text-anchor="middle" x="618" y="-179.2" font-family="sans-serif" font-size="11.00" fill="white">gather&#45;input&#45;files</text>
</g>
<!-- gather&#45;input&#45;files&#45;&gt;collect&#45;iati&#45;files -->
<g id="edge11" class="edge">
<title>gather&#45;input&#45;files&#45;&gt;collect&#45;iati&#45;files</title>
<path fill="none" stroke="#e91e63" d="M610.58,-163.83C608.45,-158.24 606.34,-151.94 605,-146 603.38,-138.81 602.4,-130.83 601.83,-123.61"/>
<polygon fill="#e91e63" stroke="#e91e63" points="603.55,-123.13 601.46,-118.26 600.06,-123.37 603.55,-123.13"/>
<text text-anchor="middle" x="608.5" y="-138.8" font-family="sans-serif" font-size="9.00" fill="#e91e63">2</text>
</g>
<!-- gather&#45;input&#45;files&#45;&gt;sheets&#45;csvxml -->
<g id="edge10" class="edge">
<title>gather&#45;input&#45;files&#45;&gt;sheets&#45;csvxml</title>
<path fill="none" stroke="#e91e63" d="M639.48,-163.64C654.89,-151.19 675.71,-134.36 691.89,-121.29"/>
<polygon fill="#e91e63" stroke="#e91e63" points="693.11,-122.55 695.9,-118.05 690.91,-119.83 693.11,-122.55"/>
<text text-anchor="middle" x="676.5" y="-138.8" font-family="sans-serif" font-size="9.00" fill="#e91e63">1</text>
</g>
<!-- spreadsheet&#45;iati -->
<!-- Create IATI XML file from spreadsheet and IATI input files, validate and summarise. -->
<g id="node16" class="node">
<title>spreadsheet&#45;iati</title>
<polygon fill="#08427b" stroke="#08427b" points="543,-282 437,-282 437,-246 543,-246 543,-282"/>
<text text-anchor="middle" x="490" y="-261.2" font-family="sans-serif" font-size="11.00" fill="white">spreadsheet&#45;iati</text>
</g>
<!-- spreadsheet&#45;iati&#45;&gt;create&#45;iati&#45;output -->
<g id="edge15" class="edge">
<title>spreadsheet&#45;iati&#45;&gt;create&#45;iati&#45;output</title>
<path fill="none" stroke="#e91e63" d="M436.7,-248.88C384.35,-235.01 304.54,-213.87 249.52,-199.3"/>
<polygon fill="#e91e63" stroke="#e91e63" points="249.89,-197.58 244.61,-198 248.99,-200.97 249.89,-197.58"/>
<text text-anchor="middle" x="361.5" y="-220.8" font-family="sans-serif" font-size="9.00" fill="#e91e63">4</text>
</g>
<!-- spreadsheet&#45;iati&#45;&gt;generate&#45;iati&#45;partials -->
<g id="edge14" class="edge">
<title>spreadsheet&#45;iati&#45;&gt;generate&#45;iati&#45;partials</title>
<path fill="none" stroke="#e91e63" d="M471.99,-245.64C459.18,-233.29 441.91,-216.65 428.4,-203.62"/>
<polygon fill="#e91e63" stroke="#e91e63" points="429.5,-202.26 424.69,-200.05 427.08,-204.78 429.5,-202.26"/>
<text text-anchor="middle" x="457.5" y="-220.8" font-family="sans-serif" font-size="9.00" fill="#e91e63">3</text>
</g>
<!-- spreadsheet&#45;iati&#45;&gt;init -->
<g id="edge12" class="edge">
<title>spreadsheet&#45;iati&#45;&gt;init</title>
<path fill="none" stroke="#e91e63" d="M496.08,-245.64C500.25,-233.71 505.83,-217.78 510.31,-204.97"/>
<polygon fill="#e91e63" stroke="#e91e63" points="512.03,-205.35 512.03,-200.05 508.73,-204.19 512.03,-205.35"/>
<text text-anchor="middle" x="509.5" y="-220.8" font-family="sans-serif" font-size="9.00" fill="#e91e63">1</text>
</g>
<!-- spreadsheet&#45;iati&#45;&gt;gather&#45;input&#45;files -->
<g id="edge13" class="edge">
<title>spreadsheet&#45;iati&#45;&gt;gather&#45;input&#45;files</title>
<path fill="none" stroke="#e91e63" d="M517.46,-245.84C537.62,-233.24 565.06,-216.09 586.18,-202.89"/>
<polygon fill="#e91e63" stroke="#e91e63" points="587.27,-204.27 590.59,-200.13 585.42,-201.3 587.27,-204.27"/>
<text text-anchor="middle" x="565.5" y="-220.8" font-family="sans-serif" font-size="9.00" fill="#e91e63">2</text>
</g>
</g>
</svg>
